<?xml version="1.0" encoding="utf-8"?>
<!-- Generator: Adobe Illustrator 26.3.1, SVG Export Plug-In . SVG Version: 6.00 Build 0)  -->
<svg version="1.1" id="Layer_1" xmlns="http://www.w3.org/2000/svg" xmlns:xlink="http://www.w3.org/1999/xlink" x="0px" y="0px"
	 viewBox="0 0 1366 768" style="enable-background:new 0 0 1366 768;" xml:space="preserve">
<style type="text/css">
	.st0{fill:url(#SVGID_1_);stroke:url(#SVGID_00000127765285542940218730000006896750910947040924_);stroke-miterlimit:10;}
	.st1{opacity:0.47;fill:url(#SVGID_00000141457990561575345330000016661595886508488863_);}
	.st2{opacity:0.63;fill:url(#SVGID_00000026881131166465102900000007138273426169744798_);}
	.st3{opacity:0.47;fill:url(#SVGID_00000002347021334945328330000008763939884579337141_);}
	.st4{opacity:0.47;fill:url(#SVGID_00000073705804960363052840000006999288053796990356_);}
	.st5{opacity:0.47;fill:url(#SVGID_00000139999887242862982330000008235831396652107921_);}
	.st6{opacity:0.47;fill:url(#SVGID_00000005947713041140578840000007238131935785027499_);}
	.st7{opacity:0.47;fill:url(#SVGID_00000018950057138825187710000017140894215870819766_);}
</style>
<linearGradient id="SVGID_1_" gradientUnits="userSpaceOnUse" x1="-7.154616e-06" y1="384.25" x2="1366" y2="384.25">
	<stop  offset="0" style="stop-color:#4D0033"/>
	<stop  offset="1" style="stop-color:#350053"/>
</linearGradient>
<linearGradient id="SVGID_00000105412064059024268450000017178411609675445936_" gradientUnits="userSpaceOnUse" x1="-0.5" y1="384.25" x2="1366.5" y2="384.25">
	<stop  offset="0" style="stop-color:#500033"/>
	<stop  offset="0" style="stop-color:#4F0938"/>
	<stop  offset="1" style="stop-color:#3FFFBC"/>
</linearGradient>
<path style="fill:url(#SVGID_1_);stroke:url(#SVGID_00000105412064059024268450000017178411609675445936_);stroke-miterlimit:10;" d="
	M0,0h810.5c0,0,30,103.5,293,103.5S1366,216.01,1366,216.01V768.5H555.5c0,0-30-103.5-293-103.5S0,552.49,0,552.49L0,0z"/>
<linearGradient id="SVGID_00000083072944313262952350000017315942440183413378_" gradientUnits="userSpaceOnUse" x1="1206.1711" y1="344" x2="1366.194" y2="344">
	<stop  offset="0" style="stop-color:#980033"/>
	<stop  offset="1" style="stop-color:#350053"/>
</linearGradient>
<path style="opacity:0.47;fill:url(#SVGID_00000083072944313262952350000017315942440183413378_);" d="M1366,138v77.54
	c0,0.31,0,0.47,0,0.47v-0.47c-0.06-4.36-2-38.2-45.94-65.89c-15.61,8.41-28.89,21.07-38.06,36.96l-62.81,108.78
	c-17.37,30.08-17.37,67.14,0,97.22L1282,501.39c17.37,30.08,49.46,48.61,84.19,48.61V138C1366.13,138,1366.06,138,1366,138z"/>
<g>
	
		<linearGradient id="SVGID_00000074444382114376044580000015222673267615480509_" gradientUnits="userSpaceOnUse" x1="-0.5" y1="489.8143" x2="173" y2="489.8143">
		<stop  offset="0" style="stop-color:#980033"/>
		<stop  offset="1" style="stop-color:#350053"/>
	</linearGradient>
	<path style="opacity:0.63;fill:url(#SVGID_00000074444382114376044580000015222673267615480509_);" d="M104.49,645.63
		C146.12,613.94,173,563.86,173,507.5C173,411.68,95.32,334-0.5,334v218.49C-0.5,552.49,2,619.26,104.49,645.63z"/>
</g>
<g>
	
		<linearGradient id="SVGID_00000003101161083851587080000010154962559156128393_" gradientUnits="userSpaceOnUse" x1="-31.874" y1="-0.0586" x2="-31.3998" y2="-0.0586">
		<stop  offset="0" style="stop-color:#980033"/>
		<stop  offset="1" style="stop-color:#350053"/>
	</linearGradient>
	<path style="opacity:0.47;fill:url(#SVGID_00000003101161083851587080000010154962559156128393_);" d="M-31.87-0.06h0.47
		C-31.4-0.06-31.57-0.06-31.87-0.06z"/>
	
		<linearGradient id="SVGID_00000139977605730434537350000016992814921460667289_" gradientUnits="userSpaceOnUse" x1="0" y1="112.4781" x2="0" y2="112.4781">
		<stop  offset="0" style="stop-color:#980033"/>
		<stop  offset="1" style="stop-color:#350053"/>
	</linearGradient>
	
		<line style="opacity:0.47;fill:url(#SVGID_00000139977605730434537350000016992814921460667289_);" x1="0" y1="115.43" x2="0" y2="109.53"/>
	
		<linearGradient id="SVGID_00000013874182322353330930000002948610050973261999_" gradientUnits="userSpaceOnUse" x1="0" y1="-0.2361" x2="0" y2="-0.2361">
		<stop  offset="0" style="stop-color:#980033"/>
		<stop  offset="1" style="stop-color:#350053"/>
	</linearGradient>
	<path style="opacity:0.47;fill:url(#SVGID_00000013874182322353330930000002948610050973261999_);" d="M0-0.24"/>
	
		<linearGradient id="SVGID_00000162326901761679857490000013118532420435976124_" gradientUnits="userSpaceOnUse" x1="-31.874" y1="-0.0577" x2="-31.874" y2="-0.0577">
		<stop  offset="0" style="stop-color:#980033"/>
		<stop  offset="1" style="stop-color:#350053"/>
	</linearGradient>
	<path style="opacity:0.47;fill:url(#SVGID_00000162326901761679857490000013118532420435976124_);" d="M-31.87-0.06"/>
	
		<linearGradient id="SVGID_00000039101945465011679330000009325393770858776999_" gradientUnits="userSpaceOnUse" x1="0" y1="81.2965" x2="807.4157" y2="81.2965">
		<stop  offset="0" style="stop-color:#980033"/>
		<stop  offset="1" style="stop-color:#350053"/>
	</linearGradient>
	<path style="opacity:0.47;fill:url(#SVGID_00000039101945465011679330000009325393770858776999_);" d="M395.42-0.41
		C395.42-0.41,395.42-0.41,395.42-0.41l-299,0c0,0.06,0,0.11,0,0.17H0v109.77l47.98,25.49c30.08,15.98,67.14,15.98,97.22,0
		l44.03-23.39l64.58,38.07c30.08,17.73,67.14,17.73,97.22,0l108.78-64.13c12.82-7.56,23.53-17.85,31.61-29.92l61.39,17.81
		c30.08,8.73,67.14,8.73,97.22,0L758.81,41.9c30.08-8.73,48.61-24.85,48.61-42.3H395.42z"/>
</g>
</svg>
