<?xml version="1.0" encoding="utf-8"?>
<!-- Generator: Adobe Illustrator 26.3.1, SVG Export Plug-In . SVG Version: 6.00 Build 0)  -->
<svg version="1.1"
	 id="Layer_1" xmlns:ns1="http://sozi.baierouge.fr" xmlns:inkscape="http://www.inkscape.org/namespaces/inkscape" xmlns:svg="http://www.w3.org/2000/svg" xmlns:dc="http://purl.org/dc/elements/1.1/" xmlns:cc="http://web.resource.org/cc/" xmlns:rdf="http://www.w3.org/1999/02/22-rdf-syntax-ns#" xmlns:sodipodi="http://sodipodi.sourceforge.net/DTD/sodipodi-0.dtd"
	 xmlns="http://www.w3.org/2000/svg" xmlns:xlink="http://www.w3.org/1999/xlink" x="0px" y="0px" viewBox="0 0 477.8 260.9"
	 style="enable-background:new 0 0 477.8 260.9;" xml:space="preserve">
<style type="text/css">
	.st0{fill:url(#SVGID_1_);}
	.st1{fill:url(#SVGID_00000145747408690859512470000001522250631930970298_);}
	.st2{fill:url(#SVGID_00000078761397851083836010000002681416430099493805_);}
	.st3{fill:url(#SVGID_00000093876181080851769530000001887688910814962860_);}
	.st4{fill:#808080;}
	.st5{fill:#3E3D3D;}
</style>
<linearGradient id="SVGID_1_" gradientUnits="userSpaceOnUse" x1="67.6479" y1="256.1558" x2="407.9479" y2="20.6158" gradientTransform="matrix(1 0 0 -1 0 263.726)">
	<stop  offset="0" style="stop-color:#999999"/>
	<stop  offset="1" style="stop-color:#4D4D4D"/>
</linearGradient>
<path class="st0" d="M82,243.6c-9.5,0-17.2,3.3-17.2-6.1V21.3c0-9.5,7.7-17.2,17.2-17.2h316.3c9.5,0,17.2,7.7,17.2,17.2v216.1
	c0,9.5-7.7,6.1-17.2,6.1H82z"/>
<linearGradient id="SVGID_00000018956259732002174250000004887598462055071104_" gradientUnits="userSpaceOnUse" x1="411.7053" y1="89.9604" x2="74.3653" y2="177.2303" gradientTransform="matrix(1 0 0 -1 0 263.726)">
	<stop  offset="0" style="stop-color:#999999"/>
	<stop  offset="1" style="stop-color:#666666"/>
</linearGradient>
<path style="fill:url(#SVGID_00000018956259732002174250000004887598462055071104_);" d="M82,251.1c-7.5,0-13.7-6.1-13.7-13.7V21.3
	c0-7.5,6.1-13.7,13.7-13.7h316.3c7.5,0,13.7,6.1,13.7,13.7v216.1c0,7.5-6.1,13.7-13.7,13.7H82z"/>
<path d="M409.6,237.4c0,6.3-5.1,11.3-11.3,11.3H82c-6.3,0-11.3-5.1-11.3-11.3V21.3C70.7,15.1,75.8,10,82,10h316.3
	c6.3,0,11.3,5.1,11.3,11.3V237.4z"/>
<linearGradient id="SVGID_00000169557699230057634910000004254902410574461108_" gradientUnits="userSpaceOnUse" x1="6.1761" y1="9.97" x2="475.6461" y2="25.19" gradientTransform="matrix(1 0 0 -1 0 263.726)">
	<stop  offset="0" style="stop-color:#666666"/>
	<stop  offset="0.3031" style="stop-color:#636363"/>
	<stop  offset="0.5649" style="stop-color:#585858"/>
	<stop  offset="0.8107" style="stop-color:#464646"/>
	<stop  offset="1" style="stop-color:#333333"/>
</linearGradient>
<path style="fill:url(#SVGID_00000169557699230057634910000004254902410574461108_);" d="M477.4,246.3c0,4-12.3,7.2-16.9,7.2H19.9
	c-4.7,0-16.9-3.2-16.9-7.2c0-4,3.8-7.2,8.5-7.2h457.5C473.6,239.1,477.4,242.3,477.4,246.3L477.4,246.3z"/>
<linearGradient id="SVGID_00000031923292035278046850000001467179191774938781_" gradientUnits="userSpaceOnUse" x1="3.006" y1="24.651" x2="477.406" y2="24.651" gradientTransform="matrix(1 0 0 -1 0 263.726)">
	<stop  offset="0" style="stop-color:#666666"/>
	<stop  offset="2.000000e-03" style="stop-color:#777777"/>
	<stop  offset="6.500000e-03" style="stop-color:#999999"/>
	<stop  offset="1.140000e-02" style="stop-color:#B5B5B5"/>
	<stop  offset="1.670000e-02" style="stop-color:#CBCBCB"/>
	<stop  offset="2.240000e-02" style="stop-color:#DADADA"/>
	<stop  offset="2.910000e-02" style="stop-color:#E3E3E3"/>
	<stop  offset="3.880000e-02" style="stop-color:#E6E6E6"/>
	<stop  offset="5.020000e-02" style="stop-color:#D4D4D4"/>
	<stop  offset="6.840000e-02" style="stop-color:#BEBEBE"/>
	<stop  offset="8.989999e-02" style="stop-color:#ADADAD"/>
	<stop  offset="0.1166" style="stop-color:#A2A2A2"/>
	<stop  offset="0.1539" style="stop-color:#9B9B9B"/>
	<stop  offset="0.2577" style="stop-color:#999999"/>
	<stop  offset="0.9444" style="stop-color:#666666"/>
	<stop  offset="0.9518" style="stop-color:#7A7A7A"/>
	<stop  offset="0.9668" style="stop-color:#AFAFAF"/>
	<stop  offset="0.9811" style="stop-color:#E6E6E6"/>
	<stop  offset="1" style="stop-color:#333333"/>
</linearGradient>
<rect x="3" y="231.8" style="fill:url(#SVGID_00000031923292035278046850000001467179191774938781_);" width="474.4" height="14.5"/>
<rect x="79.2" y="20" class="st4" width="321.9" height="194.9"/>
<path d="M454.4,239.3c0,0.5-0.8,1-1.8,1h-8.4c-1,0-1.8-0.4-1.8-1c0-0.5,0.8-0.9,1.8-0.9h8.4C453.6,238.3,454.4,238.7,454.4,239.3
	L454.4,239.3z"/>
<path class="st5" d="M272.9,236.7h-65.4c-1.4,0-2.6-1.1-2.6-2.4V232h70.5v2.4C275.5,235.7,274.3,236.7,272.9,236.7L272.9,236.7z"/>
</svg>
